<svg width="78" height="78" viewBox="0 0 78 78" fill="none" xmlns="http://www.w3.org/2000/svg">
<rect width="78" height="78" rx="12" fill="url(#paint0_linear_203_11)"/>
<path d="M48.6666 29.3333H34.1666C32.8848 29.3333 31.6554 29.8426 30.749 30.749C29.8425 31.6554 29.3333 32.8848 29.3333 34.1667C29.3333 35.4486 29.8425 36.6779 30.749 37.5844C31.6554 38.4908 32.8848 39 34.1666 39H43.8333C45.1152 39 46.3446 39.5092 47.251 40.4157C48.1574 41.3221 48.6666 42.5515 48.6666 43.8333C48.6666 45.1152 48.1574 46.3446 47.251 47.251C46.3446 48.1575 45.1152 48.6667 43.8333 48.6667H29.3333M39 53.5V24.5M19.3041 30.8317C18.9514 29.2428 19.0056 27.5905 19.4616 26.0282C19.9176 24.4658 20.7608 23.0438 21.9129 21.8942C23.0649 20.7445 24.4886 19.9043 26.052 19.4516C27.6153 18.9988 29.2677 18.9481 30.8558 19.3042C31.7299 17.9371 32.9342 16.812 34.3574 16.0327C35.7807 15.2534 37.3773 14.8449 39 14.8449C40.6227 14.8449 42.2192 15.2534 43.6425 16.0327C45.0658 16.812 46.27 17.9371 47.1441 19.3042C48.7347 18.9466 50.3899 18.997 51.9557 19.4509C53.5216 19.9048 54.9472 20.7473 56.0999 21.9C57.2527 23.0528 58.0952 24.4784 58.5491 26.0443C59.0029 27.6101 59.0534 29.2653 58.6958 30.8558C60.0629 31.73 61.188 32.9342 61.9673 34.3575C62.7466 35.7808 63.1551 37.3773 63.1551 39C63.1551 40.6227 62.7466 42.2193 61.9673 43.6425C61.188 45.0658 60.0629 46.27 58.6958 47.1442C59.0519 48.7323 59.0012 50.3847 58.5484 51.948C58.0956 53.5113 57.2555 54.9351 56.1058 56.0871C54.9562 57.2392 53.5342 58.0823 51.9718 58.5384C50.4094 58.9944 48.7572 59.0486 47.1683 58.6958C46.2953 60.0682 45.0902 61.1981 43.6644 61.9809C42.2387 62.7637 40.6385 63.1741 39.0121 63.1741C37.3856 63.1741 35.7854 62.7637 34.3597 61.9809C32.934 61.1981 31.7288 60.0682 30.8558 58.6958C29.2677 59.0519 27.6153 59.0012 26.052 58.5484C24.4886 58.0957 23.0649 57.2555 21.9129 56.1059C20.7608 54.9562 19.9176 53.5342 19.4616 51.9719C19.0056 50.4095 18.9514 48.7572 19.3041 47.1683C17.9265 46.2965 16.7918 45.0904 16.0055 43.6623C15.2192 42.2341 14.8069 40.6303 14.8069 39C14.8069 37.3697 15.2192 35.7659 16.0055 34.3377C16.7918 32.9096 17.9265 31.7035 19.3041 30.8317Z" stroke="#459D3D" stroke-width="3" stroke-linecap="round" stroke-linejoin="round"/>
<defs>
<linearGradient id="paint0_linear_203_11" x1="78" y1="0" x2="-16.0723" y2="35.9932" gradientUnits="userSpaceOnUse">
<stop stop-color="#F2FCE2"/>
<stop offset="1" stop-color="#D3FFD4"/>
</linearGradient>
</defs>
</svg>
